HIERARCHY
ROOT root
{
	OFFSET	0	13.1	24.9
	CHANNELS 6  Xposition Yposition Zposition Xrotation Yrotation Zrotation
	JOINT spine_1
	{
		OFFSET	0	9.99999	0
		CHANNELS 3  Xrotation Yrotation Zrotation
		JOINT spine_2
		{
			OFFSET	0	112	-10
			CHANNELS 3  Xrotation Yrotation Zrotation
			JOINT spine_3
			{
				OFFSET	0	206.5	19.3
				CHANNELS 3  Xrotation Yrotation Zrotation
				JOINT spine_4
				{
					OFFSET	0	110.4	14.6
					CHANNELS 3  Xrotation Yrotation Zrotation
					JOINT neck_1
					{
						OFFSET	0	71.8	-50.3
						CHANNELS 3  Xrotation Yrotation Zrotation
						JOINT neck_2
						{
							OFFSET	0	86.2	-25.8
							CHANNELS 3  Xrotation Yrotation Zrotation
							JOINT head_ee
							{
								OFFSET	0	179.8	-8.7
								CHANNELS 3  Xrotation Yrotation Zrotation
								End Site
								{
									OFFSET	1	0	0
								}
							}
						}
					}
					JOINT left_clavicle
					{
						OFFSET	-43.2	22.4	-70.8
						CHANNELS 3  Xrotation Yrotation Zrotation
						JOINT left_shoulder
						{
							OFFSET	-93.9	-5.79999	48.7
							CHANNELS 3  Xrotation Yrotation Zrotation
							JOINT left_elbow
							{
								OFFSET	-291.4	-30.8	15.2
								CHANNELS 3  Xrotation Yrotation Zrotation
								JOINT left_lowarm_twist
								{
									OFFSET	-110.7	-3.89999	13.6
									CHANNELS 3  Xrotation Yrotation Zrotation
									JOINT left_hand
									{
										OFFSET	-110.7	-3.89999	13.6
										CHANNELS 3  Xrotation Yrotation Zrotation
										JOINT left_ee
										{
											OFFSET	-80.8	-5.10001	12.1
											CHANNELS 3  Xrotation Yrotation Zrotation
											End Site
											{
												OFFSET	1	0	0
											}
										}
									}
								}
							}
						}
					}
					JOINT right_clavicle
					{
						OFFSET	43.2	22.4	-70.8
						CHANNELS 3  Xrotation Yrotation Zrotation
						JOINT right_shoulder
						{
							OFFSET	93.9	-5.79999	48.7
							CHANNELS 3  Xrotation Yrotation Zrotation
							JOINT right_elbow
							{
								OFFSET	291.4	-30.8	15.2
								CHANNELS 3  Xrotation Yrotation Zrotation
								JOINT right_lowarm_twist
								{
									OFFSET	110.7	-3.89999	13.6
									CHANNELS 3  Xrotation Yrotation Zrotation
									JOINT right_hand
									{
										OFFSET	110.7	-3.89999	13.6
										CHANNELS 3  Xrotation Yrotation Zrotation
										JOINT right_ee
										{
											OFFSET	80.8	-5.10001	12.1
											CHANNELS 3  Xrotation Yrotation Zrotation
											End Site
											{
												OFFSET	1	0	0
											}
										}
									}
								}
							}
						}
					}
				}
			}
		}
	}
	JOINT left_hip
	{
		OFFSET	-82.8	-127.5	0.300001
		CHANNELS 3  Xrotation Yrotation Zrotation
		JOINT left_knee
		{
			OFFSET	-28.2	-396.7	2.2
			CHANNELS 3  Xrotation Yrotation Zrotation
			JOINT left_ankle
			{
				OFFSET	-11.7	-411.3	35.4
				CHANNELS 3  Xrotation Yrotation Zrotation
				JOINT left_toes
				{
					OFFSET	0	-60	-88.6
					CHANNELS 3  Xrotation Yrotation Zrotation
					JOINT left_foot_ee
					{
						OFFSET	-22.5	-16.5	-42.2
						CHANNELS 3  Xrotation Yrotation Zrotation
						End Site
						{
							OFFSET	1	0	0
						}
					}
				}
			}
		}
	}
	JOINT right_hip
	{
		OFFSET	82.8	-127.5	0.300001
		CHANNELS 3  Xrotation Yrotation Zrotation
		JOINT right_knee
		{
			OFFSET	28.2	-396.7	2.2
			CHANNELS 3  Xrotation Yrotation Zrotation
			JOINT right_ankle
			{
				OFFSET	11.7	-411.3	35.4
				CHANNELS 3  Xrotation Yrotation Zrotation
				JOINT right_toes
				{
					OFFSET	0	-60	-88.6
					CHANNELS 3  Xrotation Yrotation Zrotation
					JOINT right_foot_ee
					{
						OFFSET	22.5	-16.5	-42.2
						CHANNELS 3  Xrotation Yrotation Zrotation
						End Site
						{
							OFFSET	1	0	0
						}
					}
				}
			}
		}
	}
}
MOTION
Frames: 6
Frame Time: 0.02
3472.0542687 718.599 -1500.92081242 34.0803114558 79.7959426143 -39.8994814106 -3.15958 0.873332 1.19639 -3.15914 0.795439 1.24953 -3.14024 0.43837 1.41485 -3.14243 0.656299 1.32789 -16.1343 19.4069 6.35892 -17.2925 33.6413 13.263 -0.0 0.0 -0.0 3.73087 19.8734 7.82807 -22.7001 -16.6924 66.2849 1.6437 -39.1508 0.584536 -9.97019 -0.456037 1.18871 -1.76343 23.5724 -0.7309 -0.0 0.0 -0.0 14.2558 27.3839 -28.4222 -1.57001 21.825 -53.4426 0.371328 10.423 -0.0338686 51.7705 1.09845 6.29932 -1.41312 -24.877 -1.85771 0.0 0.0 0.0 5.38402 16.1887 2.46035 -47.6734 -1.02563 7.03703 12.3393 27.606 -1.84922 34.8564 -0.0 -0.0 -0.0 0.0 -0.0 2.3615 -17.6308 14.6122 -32.4812 0.0589419 -4.91824 20.9567 30.096 3.56928 21.7845 -0.0 -0.0 0.0 0.0 0.0 
3456.71976484 722.825 -1494.4191199 32.4782867846 81.5045481226 -38.0092273506 -2.45778 0.65429 0.971846 -2.45745 0.591126 1.01151 -2.44612 0.317565 1.1277 -2.44756 0.491669 1.0634 -17.6597 18.0453 6.50939 -18.7902 31.1833 13.3055 -0.0 0.0 -0.0 3.81498 21.4561 7.96031 -26.4533 -14.5759 67.9875 1.49352 -36.4935 0.492421 -10.9202 -0.510167 1.29753 -2.21435 23.6307 -3.28242 -0.0 0.0 -0.0 14.3543 27.725 -28.6058 2.85976 24.634 -54.395 0.300083 8.45541 -0.0221826 49.2724 0.917214 6.03576 -0.349918 -16.5264 -4.58481 0.0 0.0 0.0 10.9099 16.8447 -0.134498 -50.9186 -1.30311 7.45252 2.59635 27.0745 -0.398684 35.4974 -0.0 -0.0 -0.0 0.0 -0.0 0.147602 -22.5884 14.2504 -22.714 -0.25354 -3.45364 23.3889 31.8088 4.01581 13.9466 -0.0 -0.0 0.0 0.0 0.0 
3446.13208336 722.882 -1494.35409093 29.9791998391 79.7695976843 -34.9677758824 -2.41081 0.736432 0.762979 -2.41075 0.686391 0.808292 -2.40051 0.461669 0.95463 -2.40127 0.606636 0.869746 -18.3165 17.9004 7.13018 -19.4493 30.6776 14.007 -0.0 0.0 -0.0 3.74487 22.7167 7.86267 -27.565 -14.0439 68.6662 1.36599 -34.0832 0.418727 -9.93566 -0.454104 1.18474 -2.19494 23.5391 -3.21705 -0.0 0.0 -0.0 14.3606 27.6473 -28.6314 4.29501 26.0088 -54.6136 0.313478 8.82703 -0.0241953 50.1689 0.980931 6.13125 0.0723419 -15.1885 -6.66526 0.0 0.0 0.0 14.3276 13.959 -1.79474 -50.6616 -1.28028 7.4202 3.81234 26.8292 -0.582829 32.1665 -0.0 -0.0 -0.0 0.0 -0.0 -0.59441 -25.7363 14.0729 -19.7618 -0.298396 -3.00292 21.5919 30.9054 3.7031 15.5383 -0.0 -0.0 0.0 0.0 0.0 
3440.23762407 720.906 -1498.39781126 25.1296801358 79.5564904301 -29.6400536585 -2.2019 0.603682 0.580025 -2.20189 0.56555 0.617263 -2.19548 0.395238 0.738 -2.19589 0.506829 0.666321 -18.5707 17.8504 7.07992 -19.7335 30.6474 14.0247 -0.0 0.0 -0.0 3.71667 21.9486 7.82051 -28.6232 -12.7215 69.2128 1.28182 -32.4131 0.372577 -10.5576 -0.489291 1.2561 -2.2084 23.4238 -3.35191 -0.0 0.0 -0.0 14.4117 27.8595 -28.7212 6.78062 27.3472 -54.9277 0.306125 8.62312 -0.0230798 47.859 0.819838 5.88326 0.3667 -13.6537 -7.92055 0.0 0.0 0.0 16.826 12.9782 -2.89547 -49.6328 -1.19034 7.28976 3.17545 26.3901 -0.484992 31.5247 -0.0 -0.0 -0.0 0.0 -0.0 -1.95436 -25.6083 13.4103 -17.5581 -0.316713 -2.6653 22.8841 31.9057 3.94709 14.5062 -0.0 -0.0 0.0 0.0 0.0 
3430.89600642 718.141 -1497.285748 24.9469489953 78.8354837323 -29.5409864446 -2.23228 0.708817 0.676688 -2.23227 0.664322 0.720419 -2.22349 0.46501 0.862605 -2.22403 0.595402 0.778346 -20.7967 16.7775 7.66923 -21.9717 28.612 14.7334 -0.0 0.0 -0.0 3.7533 22.6799 7.8745 -29.4773 -12.3199 69.3659 1.16308 -29.9477 0.311088 -11.0795 -0.519418 1.31568 -1.96175 21.4627 -2.8883 -0.0 0.0 -0.0 14.5924 27.9043 -29.1387 8.81464 28.4858 -55.4171 0.346046 9.72737 -0.0294458 48.3896 0.855952 5.94079 0.800184 -12.9547 -10.4165 0.0 0.0 0.0 18.9217 11.2386 -4.74981 -33.8404 -0.122087 5.11722 -3.15918 27.2837 0.491672 26.3471 -0.0 -0.0 -0.0 0.0 -0.0 -1.8664 -27.8917 13.2248 -17.3391 -0.317824 -2.63173 25.9531 30.7023 4.31674 12.4353 -0.0 -0.0 0.0 0.0 0.0 
3430.78253979 718.141 -1496.55151517 25.5884376968 79.1004496854 -30.1945508165 -2.23228 0.708817 0.676688 -2.23227 0.664322 0.720419 -2.22349 0.46501 0.862605 -2.22403 0.595402 0.778346 -20.7967 16.7775 7.66923 -21.9717 28.612 14.7334 -0.0 0.0 -0.0 3.7533 22.6799 7.8745 -29.4773 -12.3199 69.3659 1.16308 -29.9477 0.311088 -11.0795 -0.519418 1.31568 -1.96175 21.4627 -2.8883 -0.0 0.0 -0.0 14.5924 27.9043 -29.1387 8.81464 28.4858 -55.4171 0.346046 9.72737 -0.0294458 48.3896 0.855952 5.94079 0.800184 -12.9547 -10.4165 0.0 0.0 0.0 18.9217 11.2386 -4.74981 -33.8404 -0.122087 5.11722 -3.15918 27.2837 0.491672 26.3471 -0.0 -0.0 -0.0 0.0 -0.0 -1.8664 -27.8917 13.2248 -17.3391 -0.317824 -2.63173 25.9531 30.7023 4.31674 12.4353 -0.0 -0.0 0.0 0.0 0.0 
